<svg width="44" height="44" viewBox="0 0 44 44" fill="none" xmlns="http://www.w3.org/2000/svg">
<path d="M32.3032 17.6367H22.6782C21.9266 17.6367 21.3032 17.0133 21.3032 16.2617C21.3032 15.51 21.9266 14.8867 22.6782 14.8867H32.3032C33.0549 14.8867 33.6782 15.51 33.6782 16.2617C33.6782 17.0133 33.0732 17.6367 32.3032 17.6367Z" fill="#07040B"/>
<path d="M13.0533 19.03C12.7049 19.03 12.3566 18.9017 12.0816 18.6267L10.7066 17.2517C10.1749 16.72 10.1749 15.84 10.7066 15.3084C11.2383 14.7767 12.1183 14.7767 12.6499 15.3084L13.0533 15.7117L16.2066 12.5584C16.7383 12.0267 17.6183 12.0267 18.1499 12.5584C18.6816 13.09 18.6816 13.97 18.1499 14.5017L14.0249 18.6267C13.7683 18.8834 13.4199 19.03 13.0533 19.03Z" fill="#07040B"/>
<path d="M32.3032 30.47H22.6782C21.9266 30.47 21.3032 29.8466 21.3032 29.095C21.3032 28.3433 21.9266 27.72 22.6782 27.72H32.3032C33.0549 27.72 33.6782 28.3433 33.6782 29.095C33.6782 29.8466 33.0732 30.47 32.3032 30.47Z" fill="#07040B"/>
<path d="M13.0533 31.8633C12.7049 31.8633 12.3566 31.735 12.0816 31.46L10.7066 30.085C10.1749 29.5533 10.1749 28.6733 10.7066 28.1417C11.2383 27.61 12.1183 27.61 12.6499 28.1417L13.0533 28.545L16.2066 25.3917C16.7383 24.86 17.6183 24.86 18.1499 25.3917C18.6816 25.9233 18.6816 26.8033 18.1499 27.335L14.0249 31.46C13.7683 31.7167 13.4199 31.8633 13.0533 31.8633Z" fill="#07040B"/>
<path d="M27.5001 41.7084H16.5001C6.54508 41.7084 2.29175 37.455 2.29175 27.5V16.5C2.29175 6.54502 6.54508 2.29169 16.5001 2.29169H27.5001C37.4551 2.29169 41.7084 6.54502 41.7084 16.5V27.5C41.7084 37.455 37.4551 41.7084 27.5001 41.7084ZM16.5001 5.04169C8.04841 5.04169 5.04175 8.04835 5.04175 16.5V27.5C5.04175 35.9517 8.04841 38.9584 16.5001 38.9584H27.5001C35.9517 38.9584 38.9584 35.9517 38.9584 27.5V16.5C38.9584 8.04835 35.9517 5.04169 27.5001 5.04169H16.5001Z" fill="#07040B"/>
</svg>
